Coordinates
version=1
nRows=26
nColumns=24
inDegrees=yes

Units are S.I. units (second, meters, Newtons, ...)
Angles are in degrees.

endheader
time	pelvis_tilt	pelvis_list	pelvis_rotation	pelvis_tx	pelvis_ty	pelvis_tz	hip_flexion_r	hip_adduction_r	hip_rotation_r	knee_angle_r	ankle_angle_r	subtalar_angle_r	mtp_angle_r	hip_flexion_l	hip_adduction_l	hip_rotation_l	knee_angle_l	ankle_angle_l	subtalar_angle_l	mtp_angle_l	lumbar_extension	lumbar_bending	lumbar_rotation
      4.42000000	     91.85573983	     33.77223052	    -92.33206213	      1.02936364	      0.28341670	      1.07676920	     13.95682994	     -7.28007193	      7.17836002	    -70.86643482	     -6.93299788	      0.00000000	      0.00000000	     10.85324645	     -7.11916943	     -6.28845207	    -74.13836150	    -10.28391678	      0.00000000	      0.00000000	      0.00000000	      0.00000000	      0.00000000
      4.43000000	     91.85378859	     33.77416265	    -92.32947269	      1.02935922	      0.28340909	      1.07676872	     13.96281119	     -7.27302190	      7.15822589	    -70.85866946	     -6.92714192	      0.00000000	      0.00000000	     10.85394046	     -7.12122282	     -6.28814463	    -74.13847506	    -10.28080039	      0.00000000	      0.00000000	      0.00000000	      0.00000000	      0.00000000
      4.44000000	     91.85209679	     33.77485819	    -92.32856977	      1.02936274	      0.28341001	      1.07677612	     13.97026471	     -7.26535614	      7.13986874	    -70.85201696	     -6.93291158	      0.00000000	      0.00000000	     10.85355060	     -7.12266345	     -6.28805278	    -74.13839699	    -10.27895912	      0.00000000	      0.00000000	      0.00000000	      0.00000000	      0.00000000
      4.45000000	     91.85053602	     33.77489444	    -92.32873391	      1.02936819	      0.28341259	      1.07678388	     13.97759566	     -7.25699735	      7.12467086	    -70.84613356	     -6.94613450	      0.00000000	      0.00000000	     10.85283135	     -7.12404778	     -6.28790642	    -74.13828518	    -10.27862330	      0.00000000	      0.00000000	      0.00000000	      0.00000000	      0.00000000
      4.46000000	     91.84884759	     33.77500949	    -92.32861641	      1.02936665	      0.28340777	      1.07678541	     13.98295278	     -7.24820992	      7.11458481	    -70.84033646	     -6.96072759	      0.00000000	      0.00000000	     10.85296048	     -7.12613069	     -6.28732521	    -74.13847919	    -10.27960048	      0.00000000	      0.00000000	      0.00000000	      0.00000000	      0.00000000
      4.47000000	     91.84691517	     33.77531379	    -92.32729340	      1.02935820	      0.28339538	      1.07678136	     13.98539011	     -7.23904716	      7.11080807	    -70.83358313	     -6.97092733	      0.00000000	      0.00000000	     10.85479554	     -7.12941223	     -6.28608076	    -74.13924653	    -10.28137128	      0.00000000	      0.00000000	      0.00000000	      0.00000000	      0.00000000
      4.48000000	     91.84457646	     33.77566922	    -92.32477352	      1.02935112	      0.28337829	      1.07677435	     13.98500889	     -7.22949311	      7.11316328	    -70.82501969	     -6.97321509	      0.00000000	      0.00000000	     10.85814146	     -7.13376756	     -6.28434211	    -74.14054292	    -10.28331703	      0.00000000	      0.00000000	      0.00000000	      0.00000000	      0.00000000
      4.49000000	     91.84155356	     33.77619461	    -92.32187018	      1.02935243	      0.28336439	      1.07676868	     13.98241383	     -7.21978581	      7.12020002	    -70.81466392	     -6.96728422	      0.00000000	      0.00000000	     10.86175624	     -7.13854297	     -6.28264597	    -74.14191693	    -10.28497908	      0.00000000	      0.00000000	      0.00000000	      0.00000000	      0.00000000
      4.50000000	     91.83762609	     33.77721706	    -92.31958185	      1.02935899	      0.28336043	      1.07676825	     13.97804531	     -7.21059910	      7.12987689	    -70.80366454	     -6.95578395	      0.00000000	      0.00000000	     10.86418446	     -7.14300707	     -6.28157451	    -74.14257314	    -10.28621386	      0.00000000	      0.00000000	      0.00000000	      0.00000000	      0.00000000
      4.51000000	     91.83300880	     33.77860889	    -92.31841663	      1.02936275	      0.28336144	      1.07677400	     13.97219350	     -7.20270187	      7.14027752	    -70.79372805	     -6.94307182	      0.00000000	      0.00000000	     10.86462090	     -7.14672663	     -6.28139496	    -74.14163620	    -10.28716652	      0.00000000	      0.00000000	      0.00000000	      0.00000000	      0.00000000
      4.52000000	     91.82860629	     33.77939804	    -92.31824321	      1.02936156	      0.28336227	      1.07678702	     13.96550284	     -7.19629497	      7.14994369	    -70.78612903	     -6.93355385	      0.00000000	      0.00000000	     10.86308452	     -7.14968635	     -6.28186983	    -74.13862333	    -10.28809962	      0.00000000	      0.00000000	      0.00000000	      0.00000000	      0.00000000
      4.53000000	     91.82538232	     33.77865505	    -92.31841325	      1.02935778	      0.28336409	      1.07680330	     13.95878382	     -7.19115521	      7.15819868	    -70.78131215	     -6.93023892	      0.00000000	      0.00000000	     10.86001871	     -7.15205499	     -6.28247486	    -74.13385055	    -10.28918217	      0.00000000	      0.00000000	      0.00000000	      0.00000000	      0.00000000
      4.54000000	     91.82357881	     33.77635277	    -92.31802803	      1.02935355	      0.28336477	      1.07681378	     13.95255869	     -7.18727485	      7.16517682	    -70.77919544	     -6.93392959	      0.00000000	      0.00000000	     10.85593714	     -7.15388348	     -6.28287322	    -74.12841268	    -10.29034608	      0.00000000	      0.00000000	      0.00000000	      0.00000000	      0.00000000
      4.55000000	     91.82288110	     33.77300215	    -92.31655728	      1.02934971	      0.28336016	      1.07681607	     13.94717666	     -7.18494526	      7.17108262	    -70.77964258	     -6.94320982	      0.00000000	      0.00000000	     10.85137498	     -7.15513528	     -6.28317532	    -74.12365131	    -10.29127710	      0.00000000	      0.00000000	      0.00000000	      0.00000000	      0.00000000
      4.56000000	     91.82303805	     33.76903692	    -92.31438589	      1.02934725	      0.28335344	      1.07681549	     13.94302119	     -7.18451857	      7.17541264	    -70.78281567	     -6.95515189	      0.00000000	      0.00000000	     10.84687911	     -7.15588518	     -6.28382312	    -74.12041497	    -10.29155350	      0.00000000	      0.00000000	      0.00000000	      0.00000000	      0.00000000
      4.57000000	     91.82400257	     33.76492922	    -92.31265006	      1.02934815	      0.28335178	      1.07681585	     13.94035766	     -7.18647643	      7.17709524	    -70.78926465	     -6.96642150	      0.00000000	      0.00000000	     10.84279246	     -7.15628767	     -6.28528069	    -74.11866043	    -10.29088124	      0.00000000	      0.00000000	      0.00000000	      0.00000000	      0.00000000
      4.58000000	     91.82557649	     33.76151270	    -92.31238418	      1.02935192	      0.28335135	      1.07681476	     13.93924369	     -7.19145484	      7.17524526	    -70.79965646	     -6.97433263	      0.00000000	      0.00000000	     10.83901235	     -7.15619034	     -6.28785395	    -74.11771177	    -10.28929928	      0.00000000	      0.00000000	      0.00000000	      0.00000000	      0.00000000
      4.59000000	     91.82746789	     33.75935188	    -92.31396310	      1.02935781	      0.28334718	      1.07681327	     13.93999961	     -7.19937412	      7.16941913	    -70.81420393	     -6.97750682	      0.00000000	      0.00000000	     10.83519718	     -7.15491154	     -6.29159510	    -74.11686503	    -10.28721017	      0.00000000	      0.00000000	      0.00000000	      0.00000000	      0.00000000
      4.60000000	     91.82963093	     33.75808152	    -92.31719729	      1.02936833	      0.28335280	      1.07682056	     13.94329388	     -7.20876891	      7.15969830	    -70.83228024	     -6.97601762	      0.00000000	      0.00000000	     10.83134071	     -7.15173040	     -6.29602537	    -74.11583470	    -10.28519201	      0.00000000	      0.00000000	      0.00000000	      0.00000000	      0.00000000
      4.61000000	     91.83192699	     33.75717807	    -92.32132515	      1.02938069	      0.28337549	      1.07683525	     13.94907653	     -7.21789076	      7.14747714	    -70.85261481	     -6.97108979	      0.00000000	      0.00000000	     10.82805475	     -7.14667796	     -6.29995713	    -74.11487090	    -10.28370277	      0.00000000	      0.00000000	      0.00000000	      0.00000000	      0.00000000
      4.62000000	     91.83386224	     33.75664650	    -92.32505410	      1.02938674	      0.28339607	      1.07684256	     13.95598005	     -7.22593543	      7.13568112	    -70.87370973	     -6.96451980	      0.00000000	      0.00000000	     10.82634321	     -7.14081931	     -6.30187071	    -74.11454058	    -10.28285195	      0.00000000	      0.00000000	      0.00000000	      0.00000000	      0.00000000
      4.63000000	     91.83514100	     33.75658610	    -92.32715646	      1.02938558	      0.28340303	      1.07683826	     13.96209646	     -7.23269657	      7.12737128	    -70.89420620	     -6.95802715	      0.00000000	      0.00000000	     10.82703544	     -7.13576593	     -6.30072498	    -74.11528771	    -10.28235321	      0.00000000	      0.00000000	      0.00000000	      0.00000000	      0.00000000
      4.64000000	     91.83584363	     33.75693156	    -92.32691617	      1.02938299	      0.28340651	      1.07683089	     13.96591572	     -7.23806738	      7.12428800	    -70.91324271	     -6.95275041	      0.00000000	      0.00000000	     10.83010168	     -7.13269291	     -6.29669018	    -74.11705891	    -10.28166847	      0.00000000	      0.00000000	      0.00000000	      0.00000000	      0.00000000
      4.65000000	     91.83587400	     33.75755334	    -92.32418870	      1.02938026	      0.28340586	      1.07682208	     13.96679762	     -7.24226705	      7.12647087	    -70.93061130	     -6.94905740	      0.00000000	      0.00000000	     10.83436724	     -7.13157464	     -6.29124882	    -74.11920381	    -10.28027976	      0.00000000	      0.00000000	      0.00000000	      0.00000000	      0.00000000
      4.66000000	     91.83497505	     33.75801717	    -92.31980628	      1.02937310	      0.28338780	      1.07680645	     13.96518490	     -7.24565658	      7.13229507	    -70.94657159	     -6.94669784	      0.00000000	      0.00000000	     10.83792315	     -7.13135843	     -6.28641217	    -74.12074990	    -10.27798846	      0.00000000	      0.00000000	      0.00000000	      0.00000000	      0.00000000
      4.67000000	     91.83343136	     33.75734809	    -92.31583176	      1.02936309	      0.28336207	      1.07679088	     13.96241642	     -7.24811885	      7.13894110	    -70.96141179	     -6.94512230	      0.00000000	      0.00000000	     10.83891280	     -7.13088667	     -6.28360049	    -74.12095917	    -10.27510856	      0.00000000	      0.00000000	      0.00000000	      0.00000000	      0.00000000
